{"asset":{"version":"2.0","generator":"babylon.js glTF exporter for 3dsmax 2019 v20200130.3"},"scene":0,"scenes":[{"nodes":[0,1,2],"extensions":{}}],"nodes":[{"mesh":0,"translation":[0.0,0.0,0.0],"rotation":[0.7071068,0.0,0.0,0.7071067],"scale":[1.0,1.0,1.0],"name":"zenjidouM"},{"translation":[0.0,0.0,0.0],"rotation":[0.7071068,0.0,0.0,0.7071067],"scale":[1.0,1.0,1.0],"name":"Joint"},{"translation":[0.0,0.0,0.0],"rotation":[0.0,0.0,0.0,1.0],"scale":[1.0,1.0,1.0],"name":"Default light"}],"meshes":[{"primitives":[{"attributes":{"POSITION":1,"NORMAL":2,"TEXCOORD_0":3},"indices":0,"mode":4,"material":0}],"name":"zenjidouM"}],"accessors":[{"bufferView":0,"componentType":5125,"count":67089,"type":"SCALAR","name":"accessorIndices"},{"bufferView":1,"componentType":5126,"count":67089,"max":[1008.20435,251.142731,1.16415322E-10],"min":[-985.95166,-249.993484,-361.970825],"type":"VEC3","name":"accessorPositions"},{"bufferView":1,"byteOffset":805068,"componentType":5126,"count":67089,"type":"VEC3","name":"accessorNormals"},{"bufferView":2,"componentType":5126,"count":67089,"type":"VEC2","name":"accessorUVs"}],"bufferViews":[{"buffer":0,"byteLength":268356,"name":"bufferViewScalar"},{"buffer":0,"byteOffset":268356,"byteLength":1610136,"byteStride":12,"name":"bufferViewFloatVec3"},{"buffer":0,"byteOffset":1878492,"byteLength":536712,"byteStride":8,"name":"bufferViewFloatVec2"}],"buffers":[{"uri":"zenjidou.bin","byteLength":2415204}],"materials":[{"pbrMetallicRoughness":{"baseColorFactor":[1.0,1.0,1.0,1.0],"baseColorTexture":{"index":0,"texCoord":0},"metallicFactor":0.0,"roughnessFactor":0.7022211},"emissiveFactor":[0.0,0.0,0.0],"alphaMode":"OPAQUE","name":"Mat"}],"textures":[{"sampler":0,"source":0,"name":"zenjidou02.jpg"}],"images":[{"uri":"./zenjidou02.jpg"}],"samplers":[{"magFilter":9729,"minFilter":9987,"wrapS":10497,"wrapT":10497}]}