{
    "accessors" : [
        {
            "bufferView" : 0,
            "componentType" : 5123,
            "count" : 67089,
            "max" : [
                31606
            ],
            "min" : [
                0
            ],
            "type" : "SCALAR"
        },
        {
            "bufferView" : 1,
            "componentType" : 5126,
            "count" : 31607,
            "max" : [
                1008.204345703125,
                251.14273071289062,
                1.1641532182693481e-10
            ],
            "min" : [
                -985.95166015625,
                -249.9934844970703,
                -361.9708251953125
            ],
            "type" : "VEC3"
        },
        {
            "bufferView" : 2,
            "componentType" : 5126,
            "count" : 31607,
            "max" : [
                1.0,
                1.0,
                1.0
            ],
            "min" : [
                -1.0,
                -1.0,
                -1.0
            ],
            "type" : "VEC3"
        },
        {
            "bufferView" : 3,
            "componentType" : 5126,
            "count" : 31607,
            "max" : [
                0.9974302053451538,
                0.9973104000091553
            ],
            "min" : [
                0.002569781383499503,
                0.0025697946548461914
            ],
            "type" : "VEC2"
        }
    ],
    "asset" : {
        "generator" : "Khronos Blender glTF 2.0 exporter",
        "version" : "2.0"
    },
    "bufferViews" : [
        {
            "buffer" : 0,
            "byteLength" : 134178,
            "byteOffset" : 0,
            "target" : 34963
        },
        {
            "buffer" : 0,
            "byteLength" : 379284,
            "byteOffset" : 134180,
            "target" : 34962
        },
        {
            "buffer" : 0,
            "byteLength" : 379284,
            "byteOffset" : 513464,
            "target" : 34962
        },
        {
            "buffer" : 0,
            "byteLength" : 252856,
            "byteOffset" : 892748,
            "target" : 34962
        }
    ],
    "buffers" : [
        {
            "byteLength" : 1145604,
            "uri" : "zenjidou.bin"
        }
    ],
    "images" : [
        {
            "name" : "zenjidou01",
            "uri" : "zenjidou01.jpg"
        }
    ],
    "materials" : [
        {
            "name" : "Mat.002",
            "pbrMetallicRoughness" : {
                "baseColorFactor" : [
                    0.800000011920929,
                    0.800000011920929,
                    0.800000011920929,
                    1.0
                ],
                "baseColorTexture" : {
                    "index" : 0
                },
                "metallicFactor" : 0.0
            }
        }
    ],
    "meshes" : [
        {
            "name" : "Untitled.002",
            "primitives" : [
                {
                    "attributes" : {
                        "NORMAL" : 2,
                        "POSITION" : 1,
                        "TEXCOORD_0" : 3
                    },
                    "indices" : 0,
                    "material" : 0
                }
            ]
        }
    ],
    "nodes" : [
        {
            "mesh" : 0,
            "name" : "zenjidouM",
            "rotation" : [
                0.7071068286895752,
                0.0,
                -0.0,
                0.7071067094802856
            ],
            "scale" : [
                0.009999999776482582,
                0.009999999776482582,
                0.009999999776482582
            ]
        }
    ],
    "samplers" : [
        {}
    ],
    "scene" : 0,
    "scenes" : [
        {
            "name" : "Scene",
            "nodes" : [
                0
            ]
        }
    ],
    "textures" : [
        {
            "sampler" : 0,
            "source" : 0
        }
    ]
}
