{
	"asset":{
		"version":"2.0",
		"generator":"Created using the official Cinema 4D glTF Exporter 1.000x287526"
	},
	"scenes":[{
		"nodes":[0]
	}],
	"nodes":[{
		"name":"zenjidouM",
		"mesh":0
	}],
	"meshes":[{
		"primitives":[{
			"attributes":{
				"POSITION":1,
				"NORMAL":2,
				"TEXCOORD_0":3
			},
			"indices":0,
			"material":0
		}]
	}],
	"accessors":[{
		"bufferView":0,
		"type":"SCALAR",
		"componentType":5123,
		"count":67089,
		"byteOffset":0,
		"min":[0],
		"max":[36375]
	},
	{
		"bufferView":1,
		"type":"VEC3",
		"componentType":5126,
		"count":36376,
		"byteOffset":0,
		"min":[-9.859516143798829,
		-1.164153192248496e-12,
		-2.4999349117279054],
		"max":[10.082043647766114,
		3.6197080612182619,
		2.511427402496338]
	},
	{
		"bufferView":1,
		"type":"VEC3",
		"componentType":5126,
		"count":36376,
		"byteOffset":12,
		"min":[-1.0,
		-1.0,
		-1.0],
		"max":[1.0,
		1.0,
		1.0]
	},
	{
		"bufferView":1,
		"type":"VEC2",
		"componentType":5126,
		"count":36376,
		"byteOffset":24,
		"min":[0.002569781383499503,
		0.0025697811506688596],
		"max":[0.9974302053451538,
		0.9973104000091553]
	}],
	"bufferViews":[{
		"buffer":0,
		"byteOffset":0,
		"byteLength":134178,
		"target":34963
	},
	{
		"buffer":0,
		"byteOffset":134180,
		"byteLength":1164032,
		"target":34962,
		"byteStride":32
	}],
	"buffers":[{
		"uri":"data:application/octet-stream;base64,",
		"byteLength":1298212
	}],
	"images":[{
		"uri":"data:image/jpeg;base64,"
	}],
	"samplers":[{
		"magFilter":9729,
		"minFilter":9729,
		"wrapS":10497,
		"wrapT":10497
	}],
	"textures":[{
		"sampler":0,
		"source":0
	}],
	"materials":[{
		"pbrMetallicRoughness":{
			"baseColorTexture":{
				"index":0
			},
			"baseColorFactor":[1.0,
			1.0,
			1.0,
			1.0],
			"metallicFactor":1.0,
			"roughnessFactor":1.0
		},
		"emissiveFactor":[0.0,
		0.0,
		0.0],
		"alphaMode":"OPAQUE",
		"doubleSided":true,
		"name":"Mat"
	}]
}