{"asset":{"version":"2.0","generator":"babylon.js glTF exporter for 3dsmax 2019 v20200130.3"},"scene":0,"scenes":[{"nodes":[0,1,42],"extensions":{}}],"nodes":[{"skin":0,"mesh":0,"translation":[0.0,0.0,0.0],"rotation":[0.7071068,0.0,0.0,0.7071067],"scale":[1.0,1.0,1.0],"name":"zenjidouM"},{"children":[2],"translation":[0.0,0.0,0.0],"rotation":[0.7071068,0.0,0.0,0.7071067],"scale":[1.0,1.0,1.0],"name":"zenjidouB"},{"children":[3,4,6,7,8,9,11,12,13,15,16,17,18,19,20,21,22,23,24,25,27,28,31,33,34,35,36,37,38,39,40,41],"translation":[0.0,0.0,0.0],"rotation":[0.0,0.0,0.0,1.0],"scale":[1.0,1.0,1.0],"name":"joint00"},{"translation":[-137.793777,-64.7595,-79.75],"rotation":[0.0,0.0,0.0,1.0],"scale":[1.0,1.0,1.0],"name":"joint03"},{"children":[5],"translation":[341.5784,-64.7595,-79.75],"rotation":[0.0,0.0,0.0,1.0],"scale":[1.0,1.0,1.0],"name":"joint01"},{"translation":[177.874847,0.0,13.1760864],"rotation":[0.0,0.0,0.0,1.0],"scale":[1.0,1.0,1.0],"name":"joint02"},{"translation":[-230.618866,-64.75933,-122.033867],"rotation":[0.0,0.0,0.0,1.0],"scale":[1.0,1.0,1.0],"name":"joint04"},{"translation":[-286.536163,-64.7573853,-171.410248],"rotation":[0.0,0.0,0.0,1.0],"scale":[1.0,1.0,1.0],"name":"joint05"},{"translation":[-343.6877,-64.75955,-97.6900558],"rotation":[0.0,0.0,0.0,1.0],"scale":[1.0,1.0,1.0],"name":"joint06"},{"children":[10],"translation":[-515.1377,-64.7595,-97.69014],"rotation":[0.0,0.0,4.440892E-16,1.0],"scale":[1.0,1.0,1.0],"name":"joint07"},{"translation":[0.0,0.0,-12.30986],"rotation":[0.0,0.0,0.0,1.0],"scale":[1.0,1.0,1.0],"name":"joint08"},{"translation":[-582.585938,-64.76675,-99.7003],"rotation":[0.0,0.0,-1.22464672E-16,1.0],"scale":[1.0,1.0,1.0],"name":"joint09"},{"translation":[-343.6877,-64.75847,-112.4401],"rotation":[0.0,0.0,0.0,1.0],"scale":[1.0,1.0,1.0],"name":"joint10"},{"children":[14],"translation":[-373.040161,30.7946014,-141.450043],"rotation":[-0.7071068,0.0,0.0,0.7071067],"scale":[1.0,1.0,1.0],"name":"joint11"},{"translation":[0.0,0.0,-95.79216],"rotation":[0.7071068,0.0,0.0,0.7071067],"scale":[1.0,1.0,1.0],"name":"joint12"},{"translation":[-415.3361,125.239441,-112.940048],"rotation":[0.0,0.0,0.0,1.0],"scale":[1.0,1.0,1.0],"name":"joint13"},{"translation":[-377.0387,125.239395,-105.834686],"rotation":[0.0,0.0,-1.22464672E-16,1.0],"scale":[1.0,1.0,1.0],"name":"joint14"},{"translation":[-21.6807518,125.239395,-139.618927],"rotation":[0.0,0.0,0.0,1.0],"scale":[1.0,1.0,1.0],"name":"joint15"},{"translation":[-25.8376751,125.239395,-105.000206],"rotation":[0.0,0.0,0.0,1.0],"scale":[1.0,1.0,1.0],"name":"joint16"},{"translation":[-25.8376751,50.2394,-105.000206],"rotation":[0.0,0.0,-1.22464672E-16,1.0],"scale":[1.0,1.0,1.0],"name":"joint17"},{"translation":[-116.251762,125.239395,-105.834686],"rotation":[0.0,0.0,0.0,1.0],"scale":[1.0,1.0,1.0],"name":"joint18"},{"translation":[-105.837677,125.239395,-105.000206],"rotation":[0.0,0.0,0.0,1.0],"scale":[1.0,1.0,1.0],"name":"joint19"},{"translation":[79.16414,125.239914,-102.939552],"rotation":[0.0,-0.9953962,0.0,-0.09584577],"scale":[0.99999994,1.0,0.99999994],"name":"joint20"},{"translation":[117.596733,125.239777,-77.58953],"rotation":[0.0,-0.08360402,5.066447E-29,0.996499062],"scale":[1.0,1.0,1.0],"name":"joint21"},{"translation":[519.4497,57.1895523,-65.0],"rotation":[0.0,0.0,0.0,1.0],"scale":[1.0,1.0,1.0],"name":"joint22"},{"children":[26],"translation":[226.175385,-9.787363,-109.989647],"rotation":[-0.7193398,1.04644674E-15,-1.010542E-15,0.6946584],"scale":[1.0,1.0,1.0],"name":"joint23"},{"translation":[0.0,0.0,-59.1001625],"rotation":[0.7193398,1.82302284E-24,-1.88928933E-24,0.6946584],"scale":[1.0,1.0,1.0],"name":"joint24"},{"translation":[-756.83844,-34.341732,-132.350754],"rotation":[0.0,0.0,0.0,1.0],"scale":[1.0,1.0,1.0],"name":"joint25"},{"children":[29,30],"translation":[-797.087952,-117.26722,-123.999977],"rotation":[0.0,-0.955019951,0.0,-0.296541631],"scale":[0.99999994,1.0,0.99999994],"name":"joint26"},{"translation":[14.4326172,52.5003357,-4.34820557],"rotation":[0.0,0.650817752,1.16983487E-15,0.759234],"scale":[1.0,1.0,1.0],"name":"joint27"},{"translation":[0.0,52.5003357,-5.054413],"rotation":[8.881785E-16,0.0,4.44089263E-16,1.0],"scale":[0.9999999,1.0,0.9999999],"name":"joint28"},{"children":[32],"translation":[258.72113,-81.394165,-150.212769],"rotation":[0.0,0.0,0.0,1.0],"scale":[1.0,1.0,1.0],"name":"joint29"},{"translation":[0.0,0.0,34.69554],"rotation":[0.0,0.0,0.0,1.0],"scale":[1.0,1.0,1.0],"name":"joint30"},{"translation":[-880.7376,-65.26713,-97.37707],"rotation":[0.0,0.0,0.0,1.0],"scale":[1.0,1.0,1.0],"name":"joint31"},{"translation":[-908.3938,-65.26713,-101.751862],"rotation":[0.0,0.0,0.0,1.0],"scale":[1.0,1.0,1.0],"name":"joint32"},{"translation":[-799.9508,-65.2671,-115.860268],"rotation":[0.0,0.6854622,0.0,0.7281082],"scale":[0.99999994,1.0,0.99999994],"name":"joint33"},{"translation":[-799.9508,-65.2671,-115.860268],"rotation":[0.0,0.6854622,0.0,0.7281082],"scale":[0.99999994,1.0,0.99999994],"name":"joint34"},{"translation":[-799.9508,-65.2671,-115.860268],"rotation":[0.0,0.6854622,0.0,0.7281082],"scale":[0.99999994,1.0,0.99999994],"name":"joint35"},{"translation":[-799.9508,-65.2671,-115.860268],"rotation":[0.0,0.6854622,0.0,0.7281082],"scale":[0.99999994,1.0,0.99999994],"name":"joint36"},{"translation":[-799.9508,-65.2671,-115.860268],"rotation":[0.0,0.6854622,0.0,0.7281082],"scale":[0.99999994,1.0,0.99999994],"name":"joint37"},{"translation":[-799.9508,-65.2671,-115.860268],"rotation":[0.0,0.6854622,0.0,0.7281082],"scale":[0.99999994,1.0,0.99999994],"name":"joint38"},{"translation":[-799.9508,-65.2671,-115.860268],"rotation":[0.0,0.6854622,0.0,0.7281082],"scale":[0.99999994,1.0,0.99999994],"name":"joint39"},{"translation":[0.0,0.0,0.0],"rotation":[0.0,0.0,0.0,1.0],"scale":[1.0,1.0,1.0],"name":"Default light"}],"meshes":[{"primitives":[{"attributes":{"POSITION":1,"NORMAL":2,"TEXCOORD_0":3,"JOINTS_0":4,"WEIGHTS_0":5},"indices":0,"mode":4,"material":0}],"name":"zenjidouM"}],"accessors":[{"bufferView":0,"componentType":5125,"count":67089,"type":"SCALAR","name":"accessorIndices"},{"bufferView":1,"componentType":5126,"count":67089,"max":[1008.20435,251.142731,1.16415322E-10],"min":[-985.95166,-249.993484,-361.970825],"type":"VEC3","name":"accessorPositions"},{"bufferView":1,"byteOffset":805068,"componentType":5126,"count":67089,"type":"VEC3","name":"accessorNormals"},{"bufferView":2,"componentType":5126,"count":67089,"type":"VEC2","name":"accessorUVs"},{"bufferView":3,"componentType":5123,"count":67089,"type":"VEC4","name":"accessorJoints"},{"bufferView":4,"componentType":5126,"count":67089,"type":"VEC4","name":"accessorWeights"},{"bufferView":5,"componentType":5126,"count":40,"type":"MAT4","name":"accessorInverseBindMatrices"}],"bufferViews":[{"buffer":0,"byteLength":268356,"name":"bufferViewScalar"},{"buffer":0,"byteOffset":268356,"byteLength":1610136,"byteStride":12,"name":"bufferViewFloatVec3"},{"buffer":0,"byteOffset":1878492,"byteLength":536712,"byteStride":8,"name":"bufferViewFloatVec2"},{"buffer":0,"byteOffset":2415204,"byteLength":536712,"byteStride":8,"name":"bufferViewUnsignedShortVec4"},{"buffer":0,"byteOffset":2951916,"byteLength":1073424,"byteStride":16,"name":"bufferViewFloatVec4"},{"buffer":0,"byteOffset":4025340,"byteLength":2560,"name":"bufferViewFloatMat4"}],"buffers":[{"uri":"zenjidou.bin","byteLength":4027900}],"materials":[{"pbrMetallicRoughness":{"baseColorFactor":[1.0,1.0,1.0,1.0],"baseColorTexture":{"index":0,"texCoord":0},"metallicFactor":0.0,"roughnessFactor":0.7022211},"emissiveFactor":[0.0,0.0,0.0],"alphaMode":"OPAQUE","name":"Mat"}],"textures":[{"sampler":0,"source":0,"name":"tex10.jpg"}],"images":[{"uri":"./tex10.jpg"}],"samplers":[{"magFilter":9729,"minFilter":9987,"wrapS":10497,"wrapT":10497}],"skins":[{"inverseBindMatrices":6,"skeleton":2,"joints":[2,3,4,5,6,7,8,9,10,11,12,13,14,15,16,17,18,19,20,21,22,23,24,25,26,27,28,29,30,31,32,33,34,35,36,37,38,39,40,41],"name":"skeleton #0"}]}